<svg viewBox="0 0 104 90" xmlns="http://www.w3.org/2000/svg"><g id="Page-1" fill="none" fill-rule="evenodd"><g id="Test-index-kufar-8-Copy-41" transform="translate(-452 -284)" fill="#869098"><g id="noun_857900_cc" transform="translate(452 284)"><path d="M9.01490909,89.0807273 C4.04181818,89.0807273 0,85.0341818 0,80.0658182 L0,22.6814545 C0,17.7130909 4.04654545,13.6712727 9.01490909,13.6712727 L20.0625455,13.6712727 C21.3436364,13.6712727 22.5018182,12.9621818 23.088,11.8229091 L26.6429091,4.89745455 C28.1934545,1.87672727 31.2661818,0 34.6603636,0 L69.1789091,0 C72.5730909,0 75.6458182,1.87672727 77.1963636,4.89745455 L80.7512727,11.8229091 C81.3374545,12.9621818 82.4956364,13.6712727 83.7767273,13.6712727 L94.8290909,13.6712727 C99.8021818,13.6712727 103.844,17.7130909 103.844,22.6814545 L103.844,80.0705455 C103.844,85.0389091 99.7974545,89.0807273 94.8290909,89.0807273 L9.01490909,89.0807273 Z M52.0945455,24.3763636 C38.3091377,24.3763636 27.0945455,35.5909559 27.0945455,49.3763636 C27.0945455,63.1617714 38.3091377,74.3763636 52.0945455,74.3763636 C65.8799532,74.3763636 77.0945455,63.1617714 77.0945455,49.3763636 C77.0945455,35.5909559 65.8799532,24.3763636 52.0945455,24.3763636 Z" id="Combined-Shape" fill-rule="nonzero"></path></g></g></g></svg>